<?xml version="1.0" encoding="utf-8" standalone="no"?>
<!DOCTYPE svg PUBLIC "-//W3C//DTD SVG 1.1//EN"
  "http://www.w3.org/Graphics/SVG/1.1/DTD/svg11.dtd">
<!-- Created with matplotlib (https://matplotlib.org/) -->
<svg height="412.174552pt" version="1.1" viewBox="0 0 416.359776 412.174552" width="416.359776pt" xmlns="http://www.w3.org/2000/svg" xmlns:xlink="http://www.w3.org/1999/xlink">
 <defs>
  <style type="text/css">
*{stroke-linecap:butt;stroke-linejoin:round;}
  </style>
 </defs>
 <g id="figure_1">
  <g id="patch_1">
   <path d="M 0 412.174552 
L 416.359776 412.174552 
L 416.359776 0 
L 0 0 
z
" style="fill:#ffffff;"/>
  </g>
  <g id="axes_1">
   <g id="patch_2">
    <path d="M 59.690625 354.958125 
L 394.490625 354.958125 
L 394.490625 22.318125 
L 59.690625 22.318125 
z
" style="fill:#ffffff;"/>
   </g>
   <g id="patch_3">
    <path clip-path="url(#p817c95bc7c)" d="M 97.020825 354.958125 
L 98.484236 354.958125 
L 98.484236 306.379379 
L 97.020825 306.379379 
z
" style="fill:#1f77b4;"/>
   </g>
   <g id="patch_4">
    <path clip-path="url(#p817c95bc7c)" d="M 98.484236 354.958125 
L 99.947647 354.958125 
L 99.947647 40.786298 
L 98.484236 40.786298 
z
" style="fill:#1f77b4;"/>
   </g>
   <g id="patch_5">
    <path clip-path="url(#p817c95bc7c)" d="M 99.947647 354.958125 
L 101.411057 354.958125 
L 101.411057 48.104378 
L 99.947647 48.104378 
z
" style="fill:#1f77b4;"/>
   </g>
   <g id="patch_6">
    <path clip-path="url(#p817c95bc7c)" d="M 101.411057 354.958125 
L 102.874468 354.958125 
L 102.874468 313.870432 
L 101.411057 313.870432 
z
" style="fill:#1f77b4;"/>
   </g>
   <g id="patch_7">
    <path clip-path="url(#p817c95bc7c)" d="M 102.874468 354.958125 
L 104.337879 354.958125 
L 104.337879 334.77353 
L 102.874468 334.77353 
z
" style="fill:#1f77b4;"/>
   </g>
   <g id="patch_8">
    <path clip-path="url(#p817c95bc7c)" d="M 104.337879 354.958125 
L 105.80129 354.958125 
L 105.80129 341.998471 
L 104.337879 341.998471 
z
" style="fill:#1f77b4;"/>
   </g>
   <g id="patch_9">
    <path clip-path="url(#p817c95bc7c)" d="M 105.80129 354.958125 
L 107.264701 354.958125 
L 107.264701 347.347322 
L 105.80129 347.347322 
z
" style="fill:#1f77b4;"/>
   </g>
   <g id="patch_10">
    <path clip-path="url(#p817c95bc7c)" d="M 107.264701 354.958125 
L 108.728111 354.958125 
L 108.728111 347.560211 
L 107.264701 347.560211 
z
" style="fill:#1f77b4;"/>
   </g>
   <g id="patch_11">
    <path clip-path="url(#p817c95bc7c)" d="M 108.728111 354.958125 
L 110.191522 354.958125 
L 110.191522 351.352307 
L 108.728111 351.352307 
z
" style="fill:#1f77b4;"/>
   </g>
   <g id="patch_12">
    <path clip-path="url(#p817c95bc7c)" d="M 110.191522 354.958125 
L 111.654933 354.958125 
L 111.654933 352.762701 
L 110.191522 352.762701 
z
" style="fill:#1f77b4;"/>
   </g>
   <g id="patch_13">
    <path clip-path="url(#p817c95bc7c)" d="M 111.654933 354.958125 
L 113.118344 354.958125 
L 113.118344 354.013427 
L 111.654933 354.013427 
z
" style="fill:#1f77b4;"/>
   </g>
   <g id="patch_14">
    <path clip-path="url(#p817c95bc7c)" d="M 113.118344 354.958125 
L 114.581755 354.958125 
L 114.581755 354.306151 
L 113.118344 354.306151 
z
" style="fill:#1f77b4;"/>
   </g>
   <g id="patch_15">
    <path clip-path="url(#p817c95bc7c)" d="M 114.581755 354.958125 
L 116.045165 354.958125 
L 116.045165 354.412595 
L 114.581755 354.412595 
z
" style="fill:#1f77b4;"/>
   </g>
   <g id="patch_16">
    <path clip-path="url(#p817c95bc7c)" d="M 116.045165 354.958125 
L 117.508576 354.958125 
L 117.508576 354.705319 
L 116.045165 354.705319 
z
" style="fill:#1f77b4;"/>
   </g>
   <g id="patch_17">
    <path clip-path="url(#p817c95bc7c)" d="M 117.508576 354.958125 
L 118.971987 354.958125 
L 118.971987 354.745235 
L 117.508576 354.745235 
z
" style="fill:#1f77b4;"/>
   </g>
   <g id="patch_18">
    <path clip-path="url(#p817c95bc7c)" d="M 118.971987 354.958125 
L 120.435398 354.958125 
L 120.435398 354.705319 
L 118.971987 354.705319 
z
" style="fill:#1f77b4;"/>
   </g>
   <g id="patch_19">
    <path clip-path="url(#p817c95bc7c)" d="M 120.435398 354.958125 
L 121.898809 354.958125 
L 121.898809 354.798458 
L 120.435398 354.798458 
z
" style="fill:#1f77b4;"/>
   </g>
   <g id="patch_20">
    <path clip-path="url(#p817c95bc7c)" d="M 121.898809 354.958125 
L 123.362219 354.958125 
L 123.362219 354.864986 
L 121.898809 354.864986 
z
" style="fill:#1f77b4;"/>
   </g>
   <g id="patch_21">
    <path clip-path="url(#p817c95bc7c)" d="M 123.362219 354.958125 
L 124.82563 354.958125 
L 124.82563 354.85168 
L 123.362219 354.85168 
z
" style="fill:#1f77b4;"/>
   </g>
   <g id="patch_22">
    <path clip-path="url(#p817c95bc7c)" d="M 124.82563 354.958125 
L 126.289041 354.958125 
L 126.289041 354.931514 
L 124.82563 354.931514 
z
" style="fill:#1f77b4;"/>
   </g>
   <g id="patch_23">
    <path clip-path="url(#p817c95bc7c)" d="M 126.289041 354.958125 
L 127.752452 354.958125 
L 127.752452 354.891597 
L 126.289041 354.891597 
z
" style="fill:#1f77b4;"/>
   </g>
   <g id="patch_24">
    <path clip-path="url(#p817c95bc7c)" d="M 127.752452 354.958125 
L 129.215863 354.958125 
L 129.215863 354.918208 
L 127.752452 354.918208 
z
" style="fill:#1f77b4;"/>
   </g>
   <g id="patch_25">
    <path clip-path="url(#p817c95bc7c)" d="M 129.215863 354.958125 
L 130.679273 354.958125 
L 130.679273 354.944819 
L 129.215863 354.944819 
z
" style="fill:#1f77b4;"/>
   </g>
   <g id="patch_26">
    <path clip-path="url(#p817c95bc7c)" d="M 130.679273 354.958125 
L 132.142684 354.958125 
L 132.142684 354.931514 
L 130.679273 354.931514 
z
" style="fill:#1f77b4;"/>
   </g>
   <g id="patch_27">
    <path clip-path="url(#p817c95bc7c)" d="M 132.142684 354.958125 
L 133.606095 354.958125 
L 133.606095 354.931514 
L 132.142684 354.931514 
z
" style="fill:#1f77b4;"/>
   </g>
   <g id="patch_28">
    <path clip-path="url(#p817c95bc7c)" d="M 133.606095 354.958125 
L 135.069506 354.958125 
L 135.069506 354.958125 
L 133.606095 354.958125 
z
" style="fill:#1f77b4;"/>
   </g>
   <g id="patch_29">
    <path clip-path="url(#p817c95bc7c)" d="M 135.069506 354.958125 
L 136.532917 354.958125 
L 136.532917 354.958125 
L 135.069506 354.958125 
z
" style="fill:#1f77b4;"/>
   </g>
   <g id="patch_30">
    <path clip-path="url(#p817c95bc7c)" d="M 136.532917 354.958125 
L 137.996327 354.958125 
L 137.996327 354.958125 
L 136.532917 354.958125 
z
" style="fill:#1f77b4;"/>
   </g>
   <g id="patch_31">
    <path clip-path="url(#p817c95bc7c)" d="M 137.996327 354.958125 
L 139.459738 354.958125 
L 139.459738 354.931514 
L 137.996327 354.931514 
z
" style="fill:#1f77b4;"/>
   </g>
   <g id="patch_32">
    <path clip-path="url(#p817c95bc7c)" d="M 139.459738 354.958125 
L 140.923149 354.958125 
L 140.923149 354.931514 
L 139.459738 354.931514 
z
" style="fill:#1f77b4;"/>
   </g>
   <g id="patch_33">
    <path clip-path="url(#p817c95bc7c)" d="M 140.923149 354.958125 
L 142.38656 354.958125 
L 142.38656 354.931514 
L 140.923149 354.931514 
z
" style="fill:#1f77b4;"/>
   </g>
   <g id="patch_34">
    <path clip-path="url(#p817c95bc7c)" d="M 142.38656 354.958125 
L 143.849971 354.958125 
L 143.849971 354.918208 
L 142.38656 354.918208 
z
" style="fill:#1f77b4;"/>
   </g>
   <g id="patch_35">
    <path clip-path="url(#p817c95bc7c)" d="M 143.849971 354.958125 
L 145.313381 354.958125 
L 145.313381 354.944819 
L 143.849971 354.944819 
z
" style="fill:#1f77b4;"/>
   </g>
   <g id="patch_36">
    <path clip-path="url(#p817c95bc7c)" d="M 145.313381 354.958125 
L 146.776792 354.958125 
L 146.776792 354.958125 
L 145.313381 354.958125 
z
" style="fill:#1f77b4;"/>
   </g>
   <g id="patch_37">
    <path clip-path="url(#p817c95bc7c)" d="M 146.776792 354.958125 
L 148.240203 354.958125 
L 148.240203 354.958125 
L 146.776792 354.958125 
z
" style="fill:#1f77b4;"/>
   </g>
   <g id="patch_38">
    <path clip-path="url(#p817c95bc7c)" d="M 148.240203 354.958125 
L 149.703614 354.958125 
L 149.703614 354.958125 
L 148.240203 354.958125 
z
" style="fill:#1f77b4;"/>
   </g>
   <g id="patch_39">
    <path clip-path="url(#p817c95bc7c)" d="M 149.703614 354.958125 
L 151.167025 354.958125 
L 151.167025 354.958125 
L 149.703614 354.958125 
z
" style="fill:#1f77b4;"/>
   </g>
   <g id="patch_40">
    <path clip-path="url(#p817c95bc7c)" d="M 151.167025 354.958125 
L 152.630435 354.958125 
L 152.630435 354.944819 
L 151.167025 354.944819 
z
" style="fill:#1f77b4;"/>
   </g>
   <g id="patch_41">
    <path clip-path="url(#p817c95bc7c)" d="M 152.630435 354.958125 
L 154.093846 354.958125 
L 154.093846 354.931514 
L 152.630435 354.931514 
z
" style="fill:#1f77b4;"/>
   </g>
   <g id="patch_42">
    <path clip-path="url(#p817c95bc7c)" d="M 154.093846 354.958125 
L 155.557257 354.958125 
L 155.557257 354.958125 
L 154.093846 354.958125 
z
" style="fill:#1f77b4;"/>
   </g>
   <g id="patch_43">
    <path clip-path="url(#p817c95bc7c)" d="M 155.557257 354.958125 
L 157.020668 354.958125 
L 157.020668 354.958125 
L 155.557257 354.958125 
z
" style="fill:#1f77b4;"/>
   </g>
   <g id="patch_44">
    <path clip-path="url(#p817c95bc7c)" d="M 157.020668 354.958125 
L 158.484079 354.958125 
L 158.484079 354.958125 
L 157.020668 354.958125 
z
" style="fill:#1f77b4;"/>
   </g>
   <g id="patch_45">
    <path clip-path="url(#p817c95bc7c)" d="M 158.484079 354.958125 
L 159.947489 354.958125 
L 159.947489 354.958125 
L 158.484079 354.958125 
z
" style="fill:#1f77b4;"/>
   </g>
   <g id="patch_46">
    <path clip-path="url(#p817c95bc7c)" d="M 159.947489 354.958125 
L 161.4109 354.958125 
L 161.4109 354.958125 
L 159.947489 354.958125 
z
" style="fill:#1f77b4;"/>
   </g>
   <g id="patch_47">
    <path clip-path="url(#p817c95bc7c)" d="M 161.4109 354.958125 
L 162.874311 354.958125 
L 162.874311 354.958125 
L 161.4109 354.958125 
z
" style="fill:#1f77b4;"/>
   </g>
   <g id="patch_48">
    <path clip-path="url(#p817c95bc7c)" d="M 162.874311 354.958125 
L 164.337722 354.958125 
L 164.337722 354.958125 
L 162.874311 354.958125 
z
" style="fill:#1f77b4;"/>
   </g>
   <g id="patch_49">
    <path clip-path="url(#p817c95bc7c)" d="M 164.337722 354.958125 
L 165.801133 354.958125 
L 165.801133 354.958125 
L 164.337722 354.958125 
z
" style="fill:#1f77b4;"/>
   </g>
   <g id="patch_50">
    <path clip-path="url(#p817c95bc7c)" d="M 165.801133 354.958125 
L 167.264543 354.958125 
L 167.264543 354.958125 
L 165.801133 354.958125 
z
" style="fill:#1f77b4;"/>
   </g>
   <g id="patch_51">
    <path clip-path="url(#p817c95bc7c)" d="M 167.264543 354.958125 
L 168.727954 354.958125 
L 168.727954 354.958125 
L 167.264543 354.958125 
z
" style="fill:#1f77b4;"/>
   </g>
   <g id="patch_52">
    <path clip-path="url(#p817c95bc7c)" d="M 168.727954 354.958125 
L 170.191365 354.958125 
L 170.191365 354.958125 
L 168.727954 354.958125 
z
" style="fill:#1f77b4;"/>
   </g>
   <g id="patch_53">
    <path clip-path="url(#p817c95bc7c)" d="M 170.191365 354.958125 
L 171.654776 354.958125 
L 171.654776 354.918208 
L 170.191365 354.918208 
z
" style="fill:#1f77b4;"/>
   </g>
   <g id="patch_54">
    <path clip-path="url(#p817c95bc7c)" d="M 171.654776 354.958125 
L 173.118187 354.958125 
L 173.118187 354.931514 
L 171.654776 354.931514 
z
" style="fill:#1f77b4;"/>
   </g>
   <g id="patch_55">
    <path clip-path="url(#p817c95bc7c)" d="M 173.118187 354.958125 
L 174.581597 354.958125 
L 174.581597 354.958125 
L 173.118187 354.958125 
z
" style="fill:#1f77b4;"/>
   </g>
   <g id="patch_56">
    <path clip-path="url(#p817c95bc7c)" d="M 174.581597 354.958125 
L 176.045008 354.958125 
L 176.045008 354.958125 
L 174.581597 354.958125 
z
" style="fill:#1f77b4;"/>
   </g>
   <g id="patch_57">
    <path clip-path="url(#p817c95bc7c)" d="M 176.045008 354.958125 
L 177.508419 354.958125 
L 177.508419 354.958125 
L 176.045008 354.958125 
z
" style="fill:#1f77b4;"/>
   </g>
   <g id="patch_58">
    <path clip-path="url(#p817c95bc7c)" d="M 177.508419 354.958125 
L 178.97183 354.958125 
L 178.97183 354.958125 
L 177.508419 354.958125 
z
" style="fill:#1f77b4;"/>
   </g>
   <g id="patch_59">
    <path clip-path="url(#p817c95bc7c)" d="M 178.97183 354.958125 
L 180.435241 354.958125 
L 180.435241 354.918208 
L 178.97183 354.918208 
z
" style="fill:#1f77b4;"/>
   </g>
   <g id="patch_60">
    <path clip-path="url(#p817c95bc7c)" d="M 180.435241 354.958125 
L 181.898651 354.958125 
L 181.898651 354.931514 
L 180.435241 354.931514 
z
" style="fill:#1f77b4;"/>
   </g>
   <g id="patch_61">
    <path clip-path="url(#p817c95bc7c)" d="M 181.898651 354.958125 
L 183.362062 354.958125 
L 183.362062 354.904903 
L 181.898651 354.904903 
z
" style="fill:#1f77b4;"/>
   </g>
   <g id="patch_62">
    <path clip-path="url(#p817c95bc7c)" d="M 183.362062 354.958125 
L 184.825473 354.958125 
L 184.825473 354.891597 
L 183.362062 354.891597 
z
" style="fill:#1f77b4;"/>
   </g>
   <g id="patch_63">
    <path clip-path="url(#p817c95bc7c)" d="M 184.825473 354.958125 
L 186.288884 354.958125 
L 186.288884 354.878291 
L 184.825473 354.878291 
z
" style="fill:#1f77b4;"/>
   </g>
   <g id="patch_64">
    <path clip-path="url(#p817c95bc7c)" d="M 186.288884 354.958125 
L 187.752295 354.958125 
L 187.752295 354.891597 
L 186.288884 354.891597 
z
" style="fill:#1f77b4;"/>
   </g>
   <g id="patch_65">
    <path clip-path="url(#p817c95bc7c)" d="M 187.752295 354.958125 
L 189.215705 354.958125 
L 189.215705 354.252928 
L 187.752295 354.252928 
z
" style="fill:#1f77b4;"/>
   </g>
   <g id="patch_66">
    <path clip-path="url(#p817c95bc7c)" d="M 189.215705 354.958125 
L 190.679116 354.958125 
L 190.679116 354.638791 
L 189.215705 354.638791 
z
" style="fill:#1f77b4;"/>
   </g>
   <g id="patch_67">
    <path clip-path="url(#p817c95bc7c)" d="M 190.679116 354.958125 
L 192.142527 354.958125 
L 192.142527 354.745235 
L 190.679116 354.745235 
z
" style="fill:#1f77b4;"/>
   </g>
   <g id="patch_68">
    <path clip-path="url(#p817c95bc7c)" d="M 192.142527 354.958125 
L 193.605938 354.958125 
L 193.605938 354.864986 
L 192.142527 354.864986 
z
" style="fill:#1f77b4;"/>
   </g>
   <g id="patch_69">
    <path clip-path="url(#p817c95bc7c)" d="M 193.605938 354.958125 
L 195.069349 354.958125 
L 195.069349 354.811763 
L 193.605938 354.811763 
z
" style="fill:#1f77b4;"/>
   </g>
   <g id="patch_70">
    <path clip-path="url(#p817c95bc7c)" d="M 195.069349 354.958125 
L 196.532759 354.958125 
L 196.532759 354.864986 
L 195.069349 354.864986 
z
" style="fill:#1f77b4;"/>
   </g>
   <g id="patch_71">
    <path clip-path="url(#p817c95bc7c)" d="M 196.532759 354.958125 
L 197.99617 354.958125 
L 197.99617 353.840455 
L 196.532759 353.840455 
z
" style="fill:#1f77b4;"/>
   </g>
   <g id="patch_72">
    <path clip-path="url(#p817c95bc7c)" d="M 197.99617 354.958125 
L 199.459581 354.958125 
L 199.459581 353.467898 
L 197.99617 353.467898 
z
" style="fill:#1f77b4;"/>
   </g>
   <g id="patch_73">
    <path clip-path="url(#p817c95bc7c)" d="M 199.459581 354.958125 
L 200.922992 354.958125 
L 200.922992 353.454592 
L 199.459581 353.454592 
z
" style="fill:#1f77b4;"/>
   </g>
   <g id="patch_74">
    <path clip-path="url(#p817c95bc7c)" d="M 200.922992 354.958125 
L 202.386403 354.958125 
L 202.386403 354.545651 
L 200.922992 354.545651 
z
" style="fill:#1f77b4;"/>
   </g>
   <g id="patch_75">
    <path clip-path="url(#p817c95bc7c)" d="M 202.386403 354.958125 
L 203.849813 354.958125 
L 203.849813 354.85168 
L 202.386403 354.85168 
z
" style="fill:#1f77b4;"/>
   </g>
   <g id="patch_76">
    <path clip-path="url(#p817c95bc7c)" d="M 203.849813 354.958125 
L 205.313224 354.958125 
L 205.313224 354.838375 
L 203.849813 354.838375 
z
" style="fill:#1f77b4;"/>
   </g>
   <g id="patch_77">
    <path clip-path="url(#p817c95bc7c)" d="M 205.313224 354.958125 
L 206.776635 354.958125 
L 206.776635 354.931514 
L 205.313224 354.931514 
z
" style="fill:#1f77b4;"/>
   </g>
   <g id="patch_78">
    <path clip-path="url(#p817c95bc7c)" d="M 206.776635 354.958125 
L 208.240046 354.958125 
L 208.240046 354.838375 
L 206.776635 354.838375 
z
" style="fill:#1f77b4;"/>
   </g>
   <g id="patch_79">
    <path clip-path="url(#p817c95bc7c)" d="M 208.240046 354.958125 
L 209.703457 354.958125 
L 209.703457 354.944819 
L 208.240046 354.944819 
z
" style="fill:#1f77b4;"/>
   </g>
   <g id="patch_80">
    <path clip-path="url(#p817c95bc7c)" d="M 209.703457 354.958125 
L 211.166867 354.958125 
L 211.166867 354.944819 
L 209.703457 354.944819 
z
" style="fill:#1f77b4;"/>
   </g>
   <g id="patch_81">
    <path clip-path="url(#p817c95bc7c)" d="M 211.166867 354.958125 
L 212.630278 354.958125 
L 212.630278 354.958125 
L 211.166867 354.958125 
z
" style="fill:#1f77b4;"/>
   </g>
   <g id="patch_82">
    <path clip-path="url(#p817c95bc7c)" d="M 212.630278 354.958125 
L 214.093689 354.958125 
L 214.093689 354.958125 
L 212.630278 354.958125 
z
" style="fill:#1f77b4;"/>
   </g>
   <g id="patch_83">
    <path clip-path="url(#p817c95bc7c)" d="M 214.093689 354.958125 
L 215.5571 354.958125 
L 215.5571 354.944819 
L 214.093689 354.944819 
z
" style="fill:#1f77b4;"/>
   </g>
   <g id="patch_84">
    <path clip-path="url(#p817c95bc7c)" d="M 215.5571 354.958125 
L 217.020511 354.958125 
L 217.020511 354.958125 
L 215.5571 354.958125 
z
" style="fill:#1f77b4;"/>
   </g>
   <g id="patch_85">
    <path clip-path="url(#p817c95bc7c)" d="M 217.020511 354.958125 
L 218.483921 354.958125 
L 218.483921 354.944819 
L 217.020511 354.944819 
z
" style="fill:#1f77b4;"/>
   </g>
   <g id="patch_86">
    <path clip-path="url(#p817c95bc7c)" d="M 218.483921 354.958125 
L 219.947332 354.958125 
L 219.947332 354.931514 
L 218.483921 354.931514 
z
" style="fill:#1f77b4;"/>
   </g>
   <g id="patch_87">
    <path clip-path="url(#p817c95bc7c)" d="M 219.947332 354.958125 
L 221.410743 354.958125 
L 221.410743 354.931514 
L 219.947332 354.931514 
z
" style="fill:#1f77b4;"/>
   </g>
   <g id="patch_88">
    <path clip-path="url(#p817c95bc7c)" d="M 221.410743 354.958125 
L 222.874154 354.958125 
L 222.874154 354.891597 
L 221.410743 354.891597 
z
" style="fill:#1f77b4;"/>
   </g>
   <g id="patch_89">
    <path clip-path="url(#p817c95bc7c)" d="M 222.874154 354.958125 
L 224.337565 354.958125 
L 224.337565 354.944819 
L 222.874154 354.944819 
z
" style="fill:#1f77b4;"/>
   </g>
   <g id="patch_90">
    <path clip-path="url(#p817c95bc7c)" d="M 224.337565 354.958125 
L 225.800975 354.958125 
L 225.800975 354.864986 
L 224.337565 354.864986 
z
" style="fill:#1f77b4;"/>
   </g>
   <g id="patch_91">
    <path clip-path="url(#p817c95bc7c)" d="M 225.800975 354.958125 
L 227.264386 354.958125 
L 227.264386 354.864986 
L 225.800975 354.864986 
z
" style="fill:#1f77b4;"/>
   </g>
   <g id="patch_92">
    <path clip-path="url(#p817c95bc7c)" d="M 227.264386 354.958125 
L 228.727797 354.958125 
L 228.727797 354.904903 
L 227.264386 354.904903 
z
" style="fill:#1f77b4;"/>
   </g>
   <g id="patch_93">
    <path clip-path="url(#p817c95bc7c)" d="M 228.727797 354.958125 
L 230.191208 354.958125 
L 230.191208 354.85168 
L 228.727797 354.85168 
z
" style="fill:#1f77b4;"/>
   </g>
   <g id="patch_94">
    <path clip-path="url(#p817c95bc7c)" d="M 230.191208 354.958125 
L 231.654619 354.958125 
L 231.654619 354.825069 
L 230.191208 354.825069 
z
" style="fill:#1f77b4;"/>
   </g>
   <g id="patch_95">
    <path clip-path="url(#p817c95bc7c)" d="M 231.654619 354.958125 
L 233.118029 354.958125 
L 233.118029 354.785152 
L 231.654619 354.785152 
z
" style="fill:#1f77b4;"/>
   </g>
   <g id="patch_96">
    <path clip-path="url(#p817c95bc7c)" d="M 233.118029 354.958125 
L 234.58144 354.958125 
L 234.58144 354.665402 
L 233.118029 354.665402 
z
" style="fill:#1f77b4;"/>
   </g>
   <g id="patch_97">
    <path clip-path="url(#p817c95bc7c)" d="M 234.58144 354.958125 
L 236.044851 354.958125 
L 236.044851 354.652096 
L 234.58144 354.652096 
z
" style="fill:#1f77b4;"/>
   </g>
   <g id="patch_98">
    <path clip-path="url(#p817c95bc7c)" d="M 236.044851 354.958125 
L 237.508262 354.958125 
L 237.508262 354.439207 
L 236.044851 354.439207 
z
" style="fill:#1f77b4;"/>
   </g>
   <g id="patch_99">
    <path clip-path="url(#p817c95bc7c)" d="M 237.508262 354.958125 
L 238.971673 354.958125 
L 238.971673 354.359373 
L 237.508262 354.359373 
z
" style="fill:#1f77b4;"/>
   </g>
   <g id="patch_100">
    <path clip-path="url(#p817c95bc7c)" d="M 238.971673 354.958125 
L 240.435083 354.958125 
L 240.435083 354.385984 
L 238.971673 354.385984 
z
" style="fill:#1f77b4;"/>
   </g>
   <g id="patch_101">
    <path clip-path="url(#p817c95bc7c)" d="M 240.435083 354.958125 
L 241.898494 354.958125 
L 241.898494 354.279539 
L 240.435083 354.279539 
z
" style="fill:#1f77b4;"/>
   </g>
   <g id="patch_102">
    <path clip-path="url(#p817c95bc7c)" d="M 241.898494 354.958125 
L 243.361905 354.958125 
L 243.361905 354.479123 
L 241.898494 354.479123 
z
" style="fill:#1f77b4;"/>
   </g>
   <g id="patch_103">
    <path clip-path="url(#p817c95bc7c)" d="M 243.361905 354.958125 
L 244.825316 354.958125 
L 244.825316 354.492429 
L 243.361905 354.492429 
z
" style="fill:#1f77b4;"/>
   </g>
   <g id="patch_104">
    <path clip-path="url(#p817c95bc7c)" d="M 244.825316 354.958125 
L 246.288727 354.958125 
L 246.288727 354.532346 
L 244.825316 354.532346 
z
" style="fill:#1f77b4;"/>
   </g>
   <g id="patch_105">
    <path clip-path="url(#p817c95bc7c)" d="M 246.288727 354.958125 
L 247.752137 354.958125 
L 247.752137 354.545651 
L 246.288727 354.545651 
z
" style="fill:#1f77b4;"/>
   </g>
   <g id="patch_106">
    <path clip-path="url(#p817c95bc7c)" d="M 247.752137 354.958125 
L 249.215548 354.958125 
L 249.215548 354.51904 
L 247.752137 354.51904 
z
" style="fill:#1f77b4;"/>
   </g>
   <g id="patch_107">
    <path clip-path="url(#p817c95bc7c)" d="M 249.215548 354.958125 
L 250.678959 354.958125 
L 250.678959 354.665402 
L 249.215548 354.665402 
z
" style="fill:#1f77b4;"/>
   </g>
   <g id="patch_108">
    <path clip-path="url(#p817c95bc7c)" d="M 250.678959 354.958125 
L 252.14237 354.958125 
L 252.14237 354.585568 
L 250.678959 354.585568 
z
" style="fill:#1f77b4;"/>
   </g>
   <g id="patch_109">
    <path clip-path="url(#p817c95bc7c)" d="M 252.14237 354.958125 
L 253.605781 354.958125 
L 253.605781 354.652096 
L 252.14237 354.652096 
z
" style="fill:#1f77b4;"/>
   </g>
   <g id="patch_110">
    <path clip-path="url(#p817c95bc7c)" d="M 253.605781 354.958125 
L 255.069191 354.958125 
L 255.069191 354.558957 
L 253.605781 354.558957 
z
" style="fill:#1f77b4;"/>
   </g>
   <g id="patch_111">
    <path clip-path="url(#p817c95bc7c)" d="M 255.069191 354.958125 
L 256.532602 354.958125 
L 256.532602 354.652096 
L 255.069191 354.652096 
z
" style="fill:#1f77b4;"/>
   </g>
   <g id="patch_112">
    <path clip-path="url(#p817c95bc7c)" d="M 256.532602 354.958125 
L 257.996013 354.958125 
L 257.996013 354.665402 
L 256.532602 354.665402 
z
" style="fill:#1f77b4;"/>
   </g>
   <g id="patch_113">
    <path clip-path="url(#p817c95bc7c)" d="M 257.996013 354.958125 
L 259.459424 354.958125 
L 259.459424 354.545651 
L 257.996013 354.545651 
z
" style="fill:#1f77b4;"/>
   </g>
   <g id="patch_114">
    <path clip-path="url(#p817c95bc7c)" d="M 259.459424 354.958125 
L 260.922835 354.958125 
L 260.922835 354.692013 
L 259.459424 354.692013 
z
" style="fill:#1f77b4;"/>
   </g>
   <g id="patch_115">
    <path clip-path="url(#p817c95bc7c)" d="M 260.922835 354.958125 
L 262.386245 354.958125 
L 262.386245 354.612179 
L 260.922835 354.612179 
z
" style="fill:#1f77b4;"/>
   </g>
   <g id="patch_116">
    <path clip-path="url(#p817c95bc7c)" d="M 262.386245 354.958125 
L 263.849656 354.958125 
L 263.849656 354.798458 
L 262.386245 354.798458 
z
" style="fill:#1f77b4;"/>
   </g>
   <g id="patch_117">
    <path clip-path="url(#p817c95bc7c)" d="M 263.849656 354.958125 
L 265.313067 354.958125 
L 265.313067 354.771847 
L 263.849656 354.771847 
z
" style="fill:#1f77b4;"/>
   </g>
   <g id="patch_118">
    <path clip-path="url(#p817c95bc7c)" d="M 265.313067 354.958125 
L 266.776478 354.958125 
L 266.776478 354.73193 
L 265.313067 354.73193 
z
" style="fill:#1f77b4;"/>
   </g>
   <g id="patch_119">
    <path clip-path="url(#p817c95bc7c)" d="M 266.776478 354.958125 
L 268.239889 354.958125 
L 268.239889 354.745235 
L 266.776478 354.745235 
z
" style="fill:#1f77b4;"/>
   </g>
   <g id="patch_120">
    <path clip-path="url(#p817c95bc7c)" d="M 268.239889 354.958125 
L 269.703299 354.958125 
L 269.703299 354.918208 
L 268.239889 354.918208 
z
" style="fill:#1f77b4;"/>
   </g>
   <g id="patch_121">
    <path clip-path="url(#p817c95bc7c)" d="M 269.703299 354.958125 
L 271.16671 354.958125 
L 271.16671 354.878291 
L 269.703299 354.878291 
z
" style="fill:#1f77b4;"/>
   </g>
   <g id="patch_122">
    <path clip-path="url(#p817c95bc7c)" d="M 271.16671 354.958125 
L 272.630121 354.958125 
L 272.630121 354.878291 
L 271.16671 354.878291 
z
" style="fill:#1f77b4;"/>
   </g>
   <g id="patch_123">
    <path clip-path="url(#p817c95bc7c)" d="M 272.630121 354.958125 
L 274.093532 354.958125 
L 274.093532 354.878291 
L 272.630121 354.878291 
z
" style="fill:#1f77b4;"/>
   </g>
   <g id="patch_124">
    <path clip-path="url(#p817c95bc7c)" d="M 274.093532 354.958125 
L 275.556943 354.958125 
L 275.556943 354.878291 
L 274.093532 354.878291 
z
" style="fill:#1f77b4;"/>
   </g>
   <g id="patch_125">
    <path clip-path="url(#p817c95bc7c)" d="M 275.556943 354.958125 
L 277.020353 354.958125 
L 277.020353 354.904903 
L 275.556943 354.904903 
z
" style="fill:#1f77b4;"/>
   </g>
   <g id="patch_126">
    <path clip-path="url(#p817c95bc7c)" d="M 277.020353 354.958125 
L 278.483764 354.958125 
L 278.483764 354.811763 
L 277.020353 354.811763 
z
" style="fill:#1f77b4;"/>
   </g>
   <g id="patch_127">
    <path clip-path="url(#p817c95bc7c)" d="M 278.483764 354.958125 
L 279.947175 354.958125 
L 279.947175 354.904903 
L 278.483764 354.904903 
z
" style="fill:#1f77b4;"/>
   </g>
   <g id="patch_128">
    <path clip-path="url(#p817c95bc7c)" d="M 279.947175 354.958125 
L 281.410586 354.958125 
L 281.410586 354.878291 
L 279.947175 354.878291 
z
" style="fill:#1f77b4;"/>
   </g>
   <g id="patch_129">
    <path clip-path="url(#p817c95bc7c)" d="M 281.410586 354.958125 
L 282.873997 354.958125 
L 282.873997 354.878291 
L 281.410586 354.878291 
z
" style="fill:#1f77b4;"/>
   </g>
   <g id="patch_130">
    <path clip-path="url(#p817c95bc7c)" d="M 282.873997 354.958125 
L 284.337407 354.958125 
L 284.337407 354.918208 
L 282.873997 354.918208 
z
" style="fill:#1f77b4;"/>
   </g>
   <g id="patch_131">
    <path clip-path="url(#p817c95bc7c)" d="M 284.337407 354.958125 
L 285.800818 354.958125 
L 285.800818 354.944819 
L 284.337407 354.944819 
z
" style="fill:#1f77b4;"/>
   </g>
   <g id="patch_132">
    <path clip-path="url(#p817c95bc7c)" d="M 285.800818 354.958125 
L 287.264229 354.958125 
L 287.264229 354.931514 
L 285.800818 354.931514 
z
" style="fill:#1f77b4;"/>
   </g>
   <g id="patch_133">
    <path clip-path="url(#p817c95bc7c)" d="M 287.264229 354.958125 
L 288.72764 354.958125 
L 288.72764 354.918208 
L 287.264229 354.918208 
z
" style="fill:#1f77b4;"/>
   </g>
   <g id="patch_134">
    <path clip-path="url(#p817c95bc7c)" d="M 288.72764 354.958125 
L 290.191051 354.958125 
L 290.191051 354.931514 
L 288.72764 354.931514 
z
" style="fill:#1f77b4;"/>
   </g>
   <g id="patch_135">
    <path clip-path="url(#p817c95bc7c)" d="M 290.191051 354.958125 
L 291.654461 354.958125 
L 291.654461 354.944819 
L 290.191051 354.944819 
z
" style="fill:#1f77b4;"/>
   </g>
   <g id="patch_136">
    <path clip-path="url(#p817c95bc7c)" d="M 291.654461 354.958125 
L 293.117872 354.958125 
L 293.117872 354.958125 
L 291.654461 354.958125 
z
" style="fill:#1f77b4;"/>
   </g>
   <g id="patch_137">
    <path clip-path="url(#p817c95bc7c)" d="M 293.117872 354.958125 
L 294.581283 354.958125 
L 294.581283 354.944819 
L 293.117872 354.944819 
z
" style="fill:#1f77b4;"/>
   </g>
   <g id="patch_138">
    <path clip-path="url(#p817c95bc7c)" d="M 294.581283 354.958125 
L 296.044694 354.958125 
L 296.044694 354.958125 
L 294.581283 354.958125 
z
" style="fill:#1f77b4;"/>
   </g>
   <g id="patch_139">
    <path clip-path="url(#p817c95bc7c)" d="M 296.044694 354.958125 
L 297.508105 354.958125 
L 297.508105 354.958125 
L 296.044694 354.958125 
z
" style="fill:#1f77b4;"/>
   </g>
   <g id="patch_140">
    <path clip-path="url(#p817c95bc7c)" d="M 297.508105 354.958125 
L 298.971515 354.958125 
L 298.971515 354.958125 
L 297.508105 354.958125 
z
" style="fill:#1f77b4;"/>
   </g>
   <g id="patch_141">
    <path clip-path="url(#p817c95bc7c)" d="M 298.971515 354.958125 
L 300.434926 354.958125 
L 300.434926 354.944819 
L 298.971515 354.944819 
z
" style="fill:#1f77b4;"/>
   </g>
   <g id="patch_142">
    <path clip-path="url(#p817c95bc7c)" d="M 300.434926 354.958125 
L 301.898337 354.958125 
L 301.898337 354.944819 
L 300.434926 354.944819 
z
" style="fill:#1f77b4;"/>
   </g>
   <g id="patch_143">
    <path clip-path="url(#p817c95bc7c)" d="M 301.898337 354.958125 
L 303.361748 354.958125 
L 303.361748 354.958125 
L 301.898337 354.958125 
z
" style="fill:#1f77b4;"/>
   </g>
   <g id="patch_144">
    <path clip-path="url(#p817c95bc7c)" d="M 303.361748 354.958125 
L 304.825159 354.958125 
L 304.825159 354.958125 
L 303.361748 354.958125 
z
" style="fill:#1f77b4;"/>
   </g>
   <g id="patch_145">
    <path clip-path="url(#p817c95bc7c)" d="M 304.825159 354.958125 
L 306.288569 354.958125 
L 306.288569 354.944819 
L 304.825159 354.944819 
z
" style="fill:#1f77b4;"/>
   </g>
   <g id="patch_146">
    <path clip-path="url(#p817c95bc7c)" d="M 306.288569 354.958125 
L 307.75198 354.958125 
L 307.75198 354.958125 
L 306.288569 354.958125 
z
" style="fill:#1f77b4;"/>
   </g>
   <g id="patch_147">
    <path clip-path="url(#p817c95bc7c)" d="M 307.75198 354.958125 
L 309.215391 354.958125 
L 309.215391 354.944819 
L 307.75198 354.944819 
z
" style="fill:#1f77b4;"/>
   </g>
   <g id="patch_148">
    <path clip-path="url(#p817c95bc7c)" d="M 309.215391 354.958125 
L 310.678802 354.958125 
L 310.678802 354.958125 
L 309.215391 354.958125 
z
" style="fill:#1f77b4;"/>
   </g>
   <g id="patch_149">
    <path clip-path="url(#p817c95bc7c)" d="M 310.678802 354.958125 
L 312.142213 354.958125 
L 312.142213 354.958125 
L 310.678802 354.958125 
z
" style="fill:#1f77b4;"/>
   </g>
   <g id="patch_150">
    <path clip-path="url(#p817c95bc7c)" d="M 312.142213 354.958125 
L 313.605623 354.958125 
L 313.605623 354.958125 
L 312.142213 354.958125 
z
" style="fill:#1f77b4;"/>
   </g>
   <g id="patch_151">
    <path clip-path="url(#p817c95bc7c)" d="M 313.605623 354.958125 
L 315.069034 354.958125 
L 315.069034 354.958125 
L 313.605623 354.958125 
z
" style="fill:#1f77b4;"/>
   </g>
   <g id="patch_152">
    <path clip-path="url(#p817c95bc7c)" d="M 315.069034 354.958125 
L 316.532445 354.958125 
L 316.532445 354.958125 
L 315.069034 354.958125 
z
" style="fill:#1f77b4;"/>
   </g>
   <g id="patch_153">
    <path clip-path="url(#p817c95bc7c)" d="M 316.532445 354.958125 
L 317.995856 354.958125 
L 317.995856 354.958125 
L 316.532445 354.958125 
z
" style="fill:#1f77b4;"/>
   </g>
   <g id="patch_154">
    <path clip-path="url(#p817c95bc7c)" d="M 317.995856 354.958125 
L 319.459267 354.958125 
L 319.459267 354.944819 
L 317.995856 354.944819 
z
" style="fill:#1f77b4;"/>
   </g>
   <g id="patch_155">
    <path clip-path="url(#p817c95bc7c)" d="M 319.459267 354.958125 
L 320.922677 354.958125 
L 320.922677 354.958125 
L 319.459267 354.958125 
z
" style="fill:#1f77b4;"/>
   </g>
   <g id="patch_156">
    <path clip-path="url(#p817c95bc7c)" d="M 320.922677 354.958125 
L 322.386088 354.958125 
L 322.386088 354.958125 
L 320.922677 354.958125 
z
" style="fill:#1f77b4;"/>
   </g>
   <g id="patch_157">
    <path clip-path="url(#p817c95bc7c)" d="M 322.386088 354.958125 
L 323.849499 354.958125 
L 323.849499 354.958125 
L 322.386088 354.958125 
z
" style="fill:#1f77b4;"/>
   </g>
   <g id="patch_158">
    <path clip-path="url(#p817c95bc7c)" d="M 323.849499 354.958125 
L 325.31291 354.958125 
L 325.31291 354.958125 
L 323.849499 354.958125 
z
" style="fill:#1f77b4;"/>
   </g>
   <g id="patch_159">
    <path clip-path="url(#p817c95bc7c)" d="M 325.31291 354.958125 
L 326.776321 354.958125 
L 326.776321 354.958125 
L 325.31291 354.958125 
z
" style="fill:#1f77b4;"/>
   </g>
   <g id="patch_160">
    <path clip-path="url(#p817c95bc7c)" d="M 326.776321 354.958125 
L 328.239731 354.958125 
L 328.239731 354.958125 
L 326.776321 354.958125 
z
" style="fill:#1f77b4;"/>
   </g>
   <g id="patch_161">
    <path clip-path="url(#p817c95bc7c)" d="M 328.239731 354.958125 
L 329.703142 354.958125 
L 329.703142 354.958125 
L 328.239731 354.958125 
z
" style="fill:#1f77b4;"/>
   </g>
   <g id="patch_162">
    <path clip-path="url(#p817c95bc7c)" d="M 329.703142 354.958125 
L 331.166553 354.958125 
L 331.166553 354.958125 
L 329.703142 354.958125 
z
" style="fill:#1f77b4;"/>
   </g>
   <g id="patch_163">
    <path clip-path="url(#p817c95bc7c)" d="M 331.166553 354.958125 
L 332.629964 354.958125 
L 332.629964 354.958125 
L 331.166553 354.958125 
z
" style="fill:#1f77b4;"/>
   </g>
   <g id="patch_164">
    <path clip-path="url(#p817c95bc7c)" d="M 332.629964 354.958125 
L 334.093375 354.958125 
L 334.093375 354.944819 
L 332.629964 354.944819 
z
" style="fill:#1f77b4;"/>
   </g>
   <g id="patch_165">
    <path clip-path="url(#p817c95bc7c)" d="M 334.093375 354.958125 
L 335.556785 354.958125 
L 335.556785 354.958125 
L 334.093375 354.958125 
z
" style="fill:#1f77b4;"/>
   </g>
   <g id="patch_166">
    <path clip-path="url(#p817c95bc7c)" d="M 335.556785 354.958125 
L 337.020196 354.958125 
L 337.020196 354.931514 
L 335.556785 354.931514 
z
" style="fill:#1f77b4;"/>
   </g>
   <g id="patch_167">
    <path clip-path="url(#p817c95bc7c)" d="M 337.020196 354.958125 
L 338.483607 354.958125 
L 338.483607 354.931514 
L 337.020196 354.931514 
z
" style="fill:#1f77b4;"/>
   </g>
   <g id="patch_168">
    <path clip-path="url(#p817c95bc7c)" d="M 338.483607 354.958125 
L 339.947018 354.958125 
L 339.947018 354.958125 
L 338.483607 354.958125 
z
" style="fill:#1f77b4;"/>
   </g>
   <g id="patch_169">
    <path clip-path="url(#p817c95bc7c)" d="M 339.947018 354.958125 
L 341.410429 354.958125 
L 341.410429 354.958125 
L 339.947018 354.958125 
z
" style="fill:#1f77b4;"/>
   </g>
   <g id="patch_170">
    <path clip-path="url(#p817c95bc7c)" d="M 341.410429 354.958125 
L 342.873839 354.958125 
L 342.873839 354.958125 
L 341.410429 354.958125 
z
" style="fill:#1f77b4;"/>
   </g>
   <g id="patch_171">
    <path clip-path="url(#p817c95bc7c)" d="M 342.873839 354.958125 
L 344.33725 354.958125 
L 344.33725 354.958125 
L 342.873839 354.958125 
z
" style="fill:#1f77b4;"/>
   </g>
   <g id="patch_172">
    <path clip-path="url(#p817c95bc7c)" d="M 344.33725 354.958125 
L 345.800661 354.958125 
L 345.800661 354.958125 
L 344.33725 354.958125 
z
" style="fill:#1f77b4;"/>
   </g>
   <g id="patch_173">
    <path clip-path="url(#p817c95bc7c)" d="M 345.800661 354.958125 
L 347.264072 354.958125 
L 347.264072 354.944819 
L 345.800661 354.944819 
z
" style="fill:#1f77b4;"/>
   </g>
   <g id="patch_174">
    <path clip-path="url(#p817c95bc7c)" d="M 347.264072 354.958125 
L 348.727483 354.958125 
L 348.727483 354.944819 
L 347.264072 354.944819 
z
" style="fill:#1f77b4;"/>
   </g>
   <g id="patch_175">
    <path clip-path="url(#p817c95bc7c)" d="M 348.727483 354.958125 
L 350.190893 354.958125 
L 350.190893 354.958125 
L 348.727483 354.958125 
z
" style="fill:#1f77b4;"/>
   </g>
   <g id="patch_176">
    <path clip-path="url(#p817c95bc7c)" d="M 350.190893 354.958125 
L 351.654304 354.958125 
L 351.654304 354.944819 
L 350.190893 354.944819 
z
" style="fill:#1f77b4;"/>
   </g>
   <g id="patch_177">
    <path clip-path="url(#p817c95bc7c)" d="M 351.654304 354.958125 
L 353.117715 354.958125 
L 353.117715 354.958125 
L 351.654304 354.958125 
z
" style="fill:#1f77b4;"/>
   </g>
   <g id="patch_178">
    <path clip-path="url(#p817c95bc7c)" d="M 353.117715 354.958125 
L 354.581126 354.958125 
L 354.581126 354.958125 
L 353.117715 354.958125 
z
" style="fill:#1f77b4;"/>
   </g>
   <g id="patch_179">
    <path clip-path="url(#p817c95bc7c)" d="M 354.581126 354.958125 
L 356.044537 354.958125 
L 356.044537 354.958125 
L 354.581126 354.958125 
z
" style="fill:#1f77b4;"/>
   </g>
   <g id="patch_180">
    <path clip-path="url(#p817c95bc7c)" d="M 356.044537 354.958125 
L 357.507947 354.958125 
L 357.507947 354.958125 
L 356.044537 354.958125 
z
" style="fill:#1f77b4;"/>
   </g>
   <g id="patch_181">
    <path clip-path="url(#p817c95bc7c)" d="M 357.507947 354.958125 
L 358.971358 354.958125 
L 358.971358 354.958125 
L 357.507947 354.958125 
z
" style="fill:#1f77b4;"/>
   </g>
   <g id="patch_182">
    <path clip-path="url(#p817c95bc7c)" d="M 358.971358 354.958125 
L 360.434769 354.958125 
L 360.434769 354.958125 
L 358.971358 354.958125 
z
" style="fill:#1f77b4;"/>
   </g>
   <g id="patch_183">
    <path clip-path="url(#p817c95bc7c)" d="M 360.434769 354.958125 
L 361.89818 354.958125 
L 361.89818 354.944819 
L 360.434769 354.944819 
z
" style="fill:#1f77b4;"/>
   </g>
   <g id="patch_184">
    <path clip-path="url(#p817c95bc7c)" d="M 361.89818 354.958125 
L 363.361591 354.958125 
L 363.361591 354.958125 
L 361.89818 354.958125 
z
" style="fill:#1f77b4;"/>
   </g>
   <g id="patch_185">
    <path clip-path="url(#p817c95bc7c)" d="M 363.361591 354.958125 
L 364.825001 354.958125 
L 364.825001 354.944819 
L 363.361591 354.944819 
z
" style="fill:#1f77b4;"/>
   </g>
   <g id="patch_186">
    <path clip-path="url(#p817c95bc7c)" d="M 364.825001 354.958125 
L 366.288412 354.958125 
L 366.288412 354.958125 
L 364.825001 354.958125 
z
" style="fill:#1f77b4;"/>
   </g>
   <g id="patch_187">
    <path clip-path="url(#p817c95bc7c)" d="M 366.288412 354.958125 
L 367.751823 354.958125 
L 367.751823 354.958125 
L 366.288412 354.958125 
z
" style="fill:#1f77b4;"/>
   </g>
   <g id="patch_188">
    <path clip-path="url(#p817c95bc7c)" d="M 367.751823 354.958125 
L 369.215234 354.958125 
L 369.215234 354.944819 
L 367.751823 354.944819 
z
" style="fill:#1f77b4;"/>
   </g>
   <g id="patch_189">
    <path clip-path="url(#p817c95bc7c)" d="M 369.215234 354.958125 
L 370.678645 354.958125 
L 370.678645 354.958125 
L 369.215234 354.958125 
z
" style="fill:#1f77b4;"/>
   </g>
   <g id="patch_190">
    <path clip-path="url(#p817c95bc7c)" d="M 370.678645 354.958125 
L 372.142055 354.958125 
L 372.142055 354.958125 
L 370.678645 354.958125 
z
" style="fill:#1f77b4;"/>
   </g>
   <g id="patch_191">
    <path clip-path="url(#p817c95bc7c)" d="M 372.142055 354.958125 
L 373.605466 354.958125 
L 373.605466 354.958125 
L 372.142055 354.958125 
z
" style="fill:#1f77b4;"/>
   </g>
   <g id="patch_192">
    <path clip-path="url(#p817c95bc7c)" d="M 373.605466 354.958125 
L 375.068877 354.958125 
L 375.068877 354.958125 
L 373.605466 354.958125 
z
" style="fill:#1f77b4;"/>
   </g>
   <g id="patch_193">
    <path clip-path="url(#p817c95bc7c)" d="M 375.068877 354.958125 
L 376.532288 354.958125 
L 376.532288 354.944819 
L 375.068877 354.944819 
z
" style="fill:#1f77b4;"/>
   </g>
   <g id="patch_194">
    <path clip-path="url(#p817c95bc7c)" d="M 376.532288 354.958125 
L 377.995699 354.958125 
L 377.995699 354.958125 
L 376.532288 354.958125 
z
" style="fill:#1f77b4;"/>
   </g>
   <g id="patch_195">
    <path clip-path="url(#p817c95bc7c)" d="M 377.995699 354.958125 
L 379.459109 354.958125 
L 379.459109 354.958125 
L 377.995699 354.958125 
z
" style="fill:#1f77b4;"/>
   </g>
   <g id="patch_196">
    <path clip-path="url(#p817c95bc7c)" d="M 379.459109 354.958125 
L 380.92252 354.958125 
L 380.92252 354.958125 
L 379.459109 354.958125 
z
" style="fill:#1f77b4;"/>
   </g>
   <g id="patch_197">
    <path clip-path="url(#p817c95bc7c)" d="M 380.92252 354.958125 
L 382.385931 354.958125 
L 382.385931 354.958125 
L 380.92252 354.958125 
z
" style="fill:#1f77b4;"/>
   </g>
   <g id="patch_198">
    <path clip-path="url(#p817c95bc7c)" d="M 382.385931 354.958125 
L 383.849342 354.958125 
L 383.849342 354.958125 
L 382.385931 354.958125 
z
" style="fill:#1f77b4;"/>
   </g>
   <g id="patch_199">
    <path clip-path="url(#p817c95bc7c)" d="M 383.849342 354.958125 
L 385.312753 354.958125 
L 385.312753 354.958125 
L 383.849342 354.958125 
z
" style="fill:#1f77b4;"/>
   </g>
   <g id="patch_200">
    <path clip-path="url(#p817c95bc7c)" d="M 385.312753 354.958125 
L 386.776163 354.958125 
L 386.776163 354.958125 
L 385.312753 354.958125 
z
" style="fill:#1f77b4;"/>
   </g>
   <g id="patch_201">
    <path clip-path="url(#p817c95bc7c)" d="M 386.776163 354.958125 
L 388.239574 354.958125 
L 388.239574 354.958125 
L 386.776163 354.958125 
z
" style="fill:#1f77b4;"/>
   </g>
   <g id="patch_202">
    <path clip-path="url(#p817c95bc7c)" d="M 388.239574 354.958125 
L 389.702985 354.958125 
L 389.702985 354.944819 
L 388.239574 354.944819 
z
" style="fill:#1f77b4;"/>
   </g>
   <g id="matplotlib.axis_1">
    <g id="xtick_1">
     <g id="line2d_1">
      <defs>
       <path d="M 0 0 
L 0 3.5 
" id="m66dd89d55c" style="stroke:#000000;stroke-width:0.8;"/>
      </defs>
      <g>
       <use style="stroke:#000000;stroke-width:0.8;" x="59.690625" xlink:href="#m66dd89d55c" y="354.958125"/>
      </g>
     </g>
     <g id="text_1">
      <!-- 0 -->
      <defs>
       <path d="M 31.78125 66.40625 
Q 24.171875 66.40625 20.328125 58.90625 
Q 16.5 51.421875 16.5 36.375 
Q 16.5 21.390625 20.328125 13.890625 
Q 24.171875 6.390625 31.78125 6.390625 
Q 39.453125 6.390625 43.28125 13.890625 
Q 47.125 21.390625 47.125 36.375 
Q 47.125 51.421875 43.28125 58.90625 
Q 39.453125 66.40625 31.78125 66.40625 
z
M 31.78125 74.21875 
Q 44.046875 74.21875 50.515625 64.515625 
Q 56.984375 54.828125 56.984375 36.375 
Q 56.984375 17.96875 50.515625 8.265625 
Q 44.046875 -1.421875 31.78125 -1.421875 
Q 19.53125 -1.421875 13.0625 8.265625 
Q 6.59375 17.96875 6.59375 36.375 
Q 6.59375 54.828125 13.0625 64.515625 
Q 19.53125 74.21875 31.78125 74.21875 
z
" id="DejaVuSans-48"/>
      </defs>
      <g transform="translate(59.392314 371.829999)rotate(-45)scale(0.1 -0.1)">
       <use xlink:href="#DejaVuSans-48"/>
      </g>
     </g>
    </g>
    <g id="xtick_2">
     <g id="line2d_2">
      <g>
       <use style="stroke:#000000;stroke-width:0.8;" x="126.650625" xlink:href="#m66dd89d55c" y="354.958125"/>
      </g>
     </g>
     <g id="text_2">
      <!-- 2000 -->
      <defs>
       <path d="M 19.1875 8.296875 
L 53.609375 8.296875 
L 53.609375 0 
L 7.328125 0 
L 7.328125 8.296875 
Q 12.9375 14.109375 22.625 23.890625 
Q 32.328125 33.6875 34.8125 36.53125 
Q 39.546875 41.84375 41.421875 45.53125 
Q 43.3125 49.21875 43.3125 52.78125 
Q 43.3125 58.59375 39.234375 62.25 
Q 35.15625 65.921875 28.609375 65.921875 
Q 23.96875 65.921875 18.8125 64.3125 
Q 13.671875 62.703125 7.8125 59.421875 
L 7.8125 69.390625 
Q 13.765625 71.78125 18.9375 73 
Q 24.125 74.21875 28.421875 74.21875 
Q 39.75 74.21875 46.484375 68.546875 
Q 53.21875 62.890625 53.21875 53.421875 
Q 53.21875 48.921875 51.53125 44.890625 
Q 49.859375 40.875 45.40625 35.40625 
Q 44.1875 33.984375 37.640625 27.21875 
Q 31.109375 20.453125 19.1875 8.296875 
z
" id="DejaVuSans-50"/>
      </defs>
      <g transform="translate(119.603864 385.326899)rotate(-45)scale(0.1 -0.1)">
       <use xlink:href="#DejaVuSans-50"/>
       <use x="63.623047" xlink:href="#DejaVuSans-48"/>
       <use x="127.246094" xlink:href="#DejaVuSans-48"/>
       <use x="190.869141" xlink:href="#DejaVuSans-48"/>
      </g>
     </g>
    </g>
    <g id="xtick_3">
     <g id="line2d_3">
      <g>
       <use style="stroke:#000000;stroke-width:0.8;" x="193.610625" xlink:href="#m66dd89d55c" y="354.958125"/>
      </g>
     </g>
     <g id="text_3">
      <!-- 4000 -->
      <defs>
       <path d="M 37.796875 64.3125 
L 12.890625 25.390625 
L 37.796875 25.390625 
z
M 35.203125 72.90625 
L 47.609375 72.90625 
L 47.609375 25.390625 
L 58.015625 25.390625 
L 58.015625 17.1875 
L 47.609375 17.1875 
L 47.609375 0 
L 37.796875 0 
L 37.796875 17.1875 
L 4.890625 17.1875 
L 4.890625 26.703125 
z
" id="DejaVuSans-52"/>
      </defs>
      <g transform="translate(186.563864 385.326899)rotate(-45)scale(0.1 -0.1)">
       <use xlink:href="#DejaVuSans-52"/>
       <use x="63.623047" xlink:href="#DejaVuSans-48"/>
       <use x="127.246094" xlink:href="#DejaVuSans-48"/>
       <use x="190.869141" xlink:href="#DejaVuSans-48"/>
      </g>
     </g>
    </g>
    <g id="xtick_4">
     <g id="line2d_4">
      <g>
       <use style="stroke:#000000;stroke-width:0.8;" x="260.570625" xlink:href="#m66dd89d55c" y="354.958125"/>
      </g>
     </g>
     <g id="text_4">
      <!-- 6000 -->
      <defs>
       <path d="M 33.015625 40.375 
Q 26.375 40.375 22.484375 35.828125 
Q 18.609375 31.296875 18.609375 23.390625 
Q 18.609375 15.53125 22.484375 10.953125 
Q 26.375 6.390625 33.015625 6.390625 
Q 39.65625 6.390625 43.53125 10.953125 
Q 47.40625 15.53125 47.40625 23.390625 
Q 47.40625 31.296875 43.53125 35.828125 
Q 39.65625 40.375 33.015625 40.375 
z
M 52.59375 71.296875 
L 52.59375 62.3125 
Q 48.875 64.0625 45.09375 64.984375 
Q 41.3125 65.921875 37.59375 65.921875 
Q 27.828125 65.921875 22.671875 59.328125 
Q 17.53125 52.734375 16.796875 39.40625 
Q 19.671875 43.65625 24.015625 45.921875 
Q 28.375 48.1875 33.59375 48.1875 
Q 44.578125 48.1875 50.953125 41.515625 
Q 57.328125 34.859375 57.328125 23.390625 
Q 57.328125 12.15625 50.6875 5.359375 
Q 44.046875 -1.421875 33.015625 -1.421875 
Q 20.359375 -1.421875 13.671875 8.265625 
Q 6.984375 17.96875 6.984375 36.375 
Q 6.984375 53.65625 15.1875 63.9375 
Q 23.390625 74.21875 37.203125 74.21875 
Q 40.921875 74.21875 44.703125 73.484375 
Q 48.484375 72.75 52.59375 71.296875 
z
" id="DejaVuSans-54"/>
      </defs>
      <g transform="translate(253.523864 385.326899)rotate(-45)scale(0.1 -0.1)">
       <use xlink:href="#DejaVuSans-54"/>
       <use x="63.623047" xlink:href="#DejaVuSans-48"/>
       <use x="127.246094" xlink:href="#DejaVuSans-48"/>
       <use x="190.869141" xlink:href="#DejaVuSans-48"/>
      </g>
     </g>
    </g>
    <g id="xtick_5">
     <g id="line2d_5">
      <g>
       <use style="stroke:#000000;stroke-width:0.8;" x="327.530625" xlink:href="#m66dd89d55c" y="354.958125"/>
      </g>
     </g>
     <g id="text_5">
      <!-- 8000 -->
      <defs>
       <path d="M 31.78125 34.625 
Q 24.75 34.625 20.71875 30.859375 
Q 16.703125 27.09375 16.703125 20.515625 
Q 16.703125 13.921875 20.71875 10.15625 
Q 24.75 6.390625 31.78125 6.390625 
Q 38.8125 6.390625 42.859375 10.171875 
Q 46.921875 13.96875 46.921875 20.515625 
Q 46.921875 27.09375 42.890625 30.859375 
Q 38.875 34.625 31.78125 34.625 
z
M 21.921875 38.8125 
Q 15.578125 40.375 12.03125 44.71875 
Q 8.5 49.078125 8.5 55.328125 
Q 8.5 64.0625 14.71875 69.140625 
Q 20.953125 74.21875 31.78125 74.21875 
Q 42.671875 74.21875 48.875 69.140625 
Q 55.078125 64.0625 55.078125 55.328125 
Q 55.078125 49.078125 51.53125 44.71875 
Q 48 40.375 41.703125 38.8125 
Q 48.828125 37.15625 52.796875 32.3125 
Q 56.78125 27.484375 56.78125 20.515625 
Q 56.78125 9.90625 50.3125 4.234375 
Q 43.84375 -1.421875 31.78125 -1.421875 
Q 19.734375 -1.421875 13.25 4.234375 
Q 6.78125 9.90625 6.78125 20.515625 
Q 6.78125 27.484375 10.78125 32.3125 
Q 14.796875 37.15625 21.921875 38.8125 
z
M 18.3125 54.390625 
Q 18.3125 48.734375 21.84375 45.5625 
Q 25.390625 42.390625 31.78125 42.390625 
Q 38.140625 42.390625 41.71875 45.5625 
Q 45.3125 48.734375 45.3125 54.390625 
Q 45.3125 60.0625 41.71875 63.234375 
Q 38.140625 66.40625 31.78125 66.40625 
Q 25.390625 66.40625 21.84375 63.234375 
Q 18.3125 60.0625 18.3125 54.390625 
z
" id="DejaVuSans-56"/>
      </defs>
      <g transform="translate(320.483864 385.326899)rotate(-45)scale(0.1 -0.1)">
       <use xlink:href="#DejaVuSans-56"/>
       <use x="63.623047" xlink:href="#DejaVuSans-48"/>
       <use x="127.246094" xlink:href="#DejaVuSans-48"/>
       <use x="190.869141" xlink:href="#DejaVuSans-48"/>
      </g>
     </g>
    </g>
    <g id="xtick_6">
     <g id="line2d_6">
      <g>
       <use style="stroke:#000000;stroke-width:0.8;" x="394.490625" xlink:href="#m66dd89d55c" y="354.958125"/>
      </g>
     </g>
     <g id="text_6">
      <!-- 10000 -->
      <defs>
       <path d="M 12.40625 8.296875 
L 28.515625 8.296875 
L 28.515625 63.921875 
L 10.984375 60.40625 
L 10.984375 69.390625 
L 28.421875 72.90625 
L 38.28125 72.90625 
L 38.28125 8.296875 
L 54.390625 8.296875 
L 54.390625 0 
L 12.40625 0 
z
" id="DejaVuSans-49"/>
      </defs>
      <g transform="translate(385.194381 389.825866)rotate(-45)scale(0.1 -0.1)">
       <use xlink:href="#DejaVuSans-49"/>
       <use x="63.623047" xlink:href="#DejaVuSans-48"/>
       <use x="127.246094" xlink:href="#DejaVuSans-48"/>
       <use x="190.869141" xlink:href="#DejaVuSans-48"/>
       <use x="254.492188" xlink:href="#DejaVuSans-48"/>
      </g>
     </g>
    </g>
    <g id="text_7">
     <!-- Delay [ms] -->
     <defs>
      <path d="M 19.671875 64.796875 
L 19.671875 8.109375 
L 31.59375 8.109375 
Q 46.6875 8.109375 53.6875 14.9375 
Q 60.6875 21.78125 60.6875 36.53125 
Q 60.6875 51.171875 53.6875 57.984375 
Q 46.6875 64.796875 31.59375 64.796875 
z
M 9.8125 72.90625 
L 30.078125 72.90625 
Q 51.265625 72.90625 61.171875 64.09375 
Q 71.09375 55.28125 71.09375 36.53125 
Q 71.09375 17.671875 61.125 8.828125 
Q 51.171875 0 30.078125 0 
L 9.8125 0 
z
" id="DejaVuSans-68"/>
      <path d="M 56.203125 29.59375 
L 56.203125 25.203125 
L 14.890625 25.203125 
Q 15.484375 15.921875 20.484375 11.0625 
Q 25.484375 6.203125 34.421875 6.203125 
Q 39.59375 6.203125 44.453125 7.46875 
Q 49.3125 8.734375 54.109375 11.28125 
L 54.109375 2.78125 
Q 49.265625 0.734375 44.1875 -0.34375 
Q 39.109375 -1.421875 33.890625 -1.421875 
Q 20.796875 -1.421875 13.15625 6.1875 
Q 5.515625 13.8125 5.515625 26.8125 
Q 5.515625 40.234375 12.765625 48.109375 
Q 20.015625 56 32.328125 56 
Q 43.359375 56 49.78125 48.890625 
Q 56.203125 41.796875 56.203125 29.59375 
z
M 47.21875 32.234375 
Q 47.125 39.59375 43.09375 43.984375 
Q 39.0625 48.390625 32.421875 48.390625 
Q 24.90625 48.390625 20.390625 44.140625 
Q 15.875 39.890625 15.1875 32.171875 
z
" id="DejaVuSans-101"/>
      <path d="M 9.421875 75.984375 
L 18.40625 75.984375 
L 18.40625 0 
L 9.421875 0 
z
" id="DejaVuSans-108"/>
      <path d="M 34.28125 27.484375 
Q 23.390625 27.484375 19.1875 25 
Q 14.984375 22.515625 14.984375 16.5 
Q 14.984375 11.71875 18.140625 8.90625 
Q 21.296875 6.109375 26.703125 6.109375 
Q 34.1875 6.109375 38.703125 11.40625 
Q 43.21875 16.703125 43.21875 25.484375 
L 43.21875 27.484375 
z
M 52.203125 31.203125 
L 52.203125 0 
L 43.21875 0 
L 43.21875 8.296875 
Q 40.140625 3.328125 35.546875 0.953125 
Q 30.953125 -1.421875 24.3125 -1.421875 
Q 15.921875 -1.421875 10.953125 3.296875 
Q 6 8.015625 6 15.921875 
Q 6 25.140625 12.171875 29.828125 
Q 18.359375 34.515625 30.609375 34.515625 
L 43.21875 34.515625 
L 43.21875 35.40625 
Q 43.21875 41.609375 39.140625 45 
Q 35.0625 48.390625 27.6875 48.390625 
Q 23 48.390625 18.546875 47.265625 
Q 14.109375 46.140625 10.015625 43.890625 
L 10.015625 52.203125 
Q 14.9375 54.109375 19.578125 55.046875 
Q 24.21875 56 28.609375 56 
Q 40.484375 56 46.34375 49.84375 
Q 52.203125 43.703125 52.203125 31.203125 
z
" id="DejaVuSans-97"/>
      <path d="M 32.171875 -5.078125 
Q 28.375 -14.84375 24.75 -17.8125 
Q 21.140625 -20.796875 15.09375 -20.796875 
L 7.90625 -20.796875 
L 7.90625 -13.28125 
L 13.1875 -13.28125 
Q 16.890625 -13.28125 18.9375 -11.515625 
Q 21 -9.765625 23.484375 -3.21875 
L 25.09375 0.875 
L 2.984375 54.6875 
L 12.5 54.6875 
L 29.59375 11.921875 
L 46.6875 54.6875 
L 56.203125 54.6875 
z
" id="DejaVuSans-121"/>
      <path id="DejaVuSans-32"/>
      <path d="M 8.59375 75.984375 
L 29.296875 75.984375 
L 29.296875 69 
L 17.578125 69 
L 17.578125 -6.203125 
L 29.296875 -6.203125 
L 29.296875 -13.1875 
L 8.59375 -13.1875 
z
" id="DejaVuSans-91"/>
      <path d="M 52 44.1875 
Q 55.375 50.25 60.0625 53.125 
Q 64.75 56 71.09375 56 
Q 79.640625 56 84.28125 50.015625 
Q 88.921875 44.046875 88.921875 33.015625 
L 88.921875 0 
L 79.890625 0 
L 79.890625 32.71875 
Q 79.890625 40.578125 77.09375 44.375 
Q 74.3125 48.1875 68.609375 48.1875 
Q 61.625 48.1875 57.5625 43.546875 
Q 53.515625 38.921875 53.515625 30.90625 
L 53.515625 0 
L 44.484375 0 
L 44.484375 32.71875 
Q 44.484375 40.625 41.703125 44.40625 
Q 38.921875 48.1875 33.109375 48.1875 
Q 26.21875 48.1875 22.15625 43.53125 
Q 18.109375 38.875 18.109375 30.90625 
L 18.109375 0 
L 9.078125 0 
L 9.078125 54.6875 
L 18.109375 54.6875 
L 18.109375 46.1875 
Q 21.1875 51.21875 25.484375 53.609375 
Q 29.78125 56 35.6875 56 
Q 41.65625 56 45.828125 52.96875 
Q 50 49.953125 52 44.1875 
z
" id="DejaVuSans-109"/>
      <path d="M 44.28125 53.078125 
L 44.28125 44.578125 
Q 40.484375 46.53125 36.375 47.5 
Q 32.28125 48.484375 27.875 48.484375 
Q 21.1875 48.484375 17.84375 46.4375 
Q 14.5 44.390625 14.5 40.28125 
Q 14.5 37.15625 16.890625 35.375 
Q 19.28125 33.59375 26.515625 31.984375 
L 29.59375 31.296875 
Q 39.15625 29.25 43.1875 25.515625 
Q 47.21875 21.78125 47.21875 15.09375 
Q 47.21875 7.46875 41.1875 3.015625 
Q 35.15625 -1.421875 24.609375 -1.421875 
Q 20.21875 -1.421875 15.453125 -0.5625 
Q 10.6875 0.296875 5.421875 2 
L 5.421875 11.28125 
Q 10.40625 8.6875 15.234375 7.390625 
Q 20.0625 6.109375 24.8125 6.109375 
Q 31.15625 6.109375 34.5625 8.28125 
Q 37.984375 10.453125 37.984375 14.40625 
Q 37.984375 18.0625 35.515625 20.015625 
Q 33.0625 21.96875 24.703125 23.78125 
L 21.578125 24.515625 
Q 13.234375 26.265625 9.515625 29.90625 
Q 5.8125 33.546875 5.8125 39.890625 
Q 5.8125 47.609375 11.28125 51.796875 
Q 16.75 56 26.8125 56 
Q 31.78125 56 36.171875 55.265625 
Q 40.578125 54.546875 44.28125 53.078125 
z
" id="DejaVuSans-115"/>
      <path d="M 30.421875 75.984375 
L 30.421875 -13.1875 
L 9.71875 -13.1875 
L 9.71875 -6.203125 
L 21.390625 -6.203125 
L 21.390625 69 
L 9.71875 69 
L 9.71875 75.984375 
z
" id="DejaVuSans-93"/>
     </defs>
     <g transform="translate(199.785938 402.894865)scale(0.1 -0.1)">
      <use xlink:href="#DejaVuSans-68"/>
      <use x="77.001953" xlink:href="#DejaVuSans-101"/>
      <use x="138.525391" xlink:href="#DejaVuSans-108"/>
      <use x="166.308594" xlink:href="#DejaVuSans-97"/>
      <use x="227.587891" xlink:href="#DejaVuSans-121"/>
      <use x="286.767578" xlink:href="#DejaVuSans-32"/>
      <use x="318.554688" xlink:href="#DejaVuSans-91"/>
      <use x="357.568359" xlink:href="#DejaVuSans-109"/>
      <use x="454.980469" xlink:href="#DejaVuSans-115"/>
      <use x="507.080078" xlink:href="#DejaVuSans-93"/>
     </g>
    </g>
   </g>
   <g id="matplotlib.axis_2">
    <g id="ytick_1">
     <g id="line2d_7">
      <defs>
       <path d="M 0 0 
L -3.5 0 
" id="md9b29bb4e8" style="stroke:#000000;stroke-width:0.8;"/>
      </defs>
      <g>
       <use style="stroke:#000000;stroke-width:0.8;" x="59.690625" xlink:href="#md9b29bb4e8" y="354.958125"/>
      </g>
     </g>
     <g id="text_8">
      <!-- 0 -->
      <g transform="translate(46.328125 358.757344)scale(0.1 -0.1)">
       <use xlink:href="#DejaVuSans-48"/>
      </g>
     </g>
    </g>
    <g id="ytick_2">
     <g id="line2d_8">
      <g>
       <use style="stroke:#000000;stroke-width:0.8;" x="59.690625" xlink:href="#md9b29bb4e8" y="288.430125"/>
      </g>
     </g>
     <g id="text_9">
      <!-- 5000 -->
      <defs>
       <path d="M 10.796875 72.90625 
L 49.515625 72.90625 
L 49.515625 64.59375 
L 19.828125 64.59375 
L 19.828125 46.734375 
Q 21.96875 47.46875 24.109375 47.828125 
Q 26.265625 48.1875 28.421875 48.1875 
Q 40.625 48.1875 47.75 41.5 
Q 54.890625 34.8125 54.890625 23.390625 
Q 54.890625 11.625 47.5625 5.09375 
Q 40.234375 -1.421875 26.90625 -1.421875 
Q 22.3125 -1.421875 17.546875 -0.640625 
Q 12.796875 0.140625 7.71875 1.703125 
L 7.71875 11.625 
Q 12.109375 9.234375 16.796875 8.0625 
Q 21.484375 6.890625 26.703125 6.890625 
Q 35.15625 6.890625 40.078125 11.328125 
Q 45.015625 15.765625 45.015625 23.390625 
Q 45.015625 31 40.078125 35.4375 
Q 35.15625 39.890625 26.703125 39.890625 
Q 22.75 39.890625 18.8125 39.015625 
Q 14.890625 38.140625 10.796875 36.28125 
z
" id="DejaVuSans-53"/>
      </defs>
      <g transform="translate(27.240625 292.229344)scale(0.1 -0.1)">
       <use xlink:href="#DejaVuSans-53"/>
       <use x="63.623047" xlink:href="#DejaVuSans-48"/>
       <use x="127.246094" xlink:href="#DejaVuSans-48"/>
       <use x="190.869141" xlink:href="#DejaVuSans-48"/>
      </g>
     </g>
    </g>
    <g id="ytick_3">
     <g id="line2d_9">
      <g>
       <use style="stroke:#000000;stroke-width:0.8;" x="59.690625" xlink:href="#md9b29bb4e8" y="221.902125"/>
      </g>
     </g>
     <g id="text_10">
      <!-- 10000 -->
      <g transform="translate(20.878125 225.701344)scale(0.1 -0.1)">
       <use xlink:href="#DejaVuSans-49"/>
       <use x="63.623047" xlink:href="#DejaVuSans-48"/>
       <use x="127.246094" xlink:href="#DejaVuSans-48"/>
       <use x="190.869141" xlink:href="#DejaVuSans-48"/>
       <use x="254.492188" xlink:href="#DejaVuSans-48"/>
      </g>
     </g>
    </g>
    <g id="ytick_4">
     <g id="line2d_10">
      <g>
       <use style="stroke:#000000;stroke-width:0.8;" x="59.690625" xlink:href="#md9b29bb4e8" y="155.374125"/>
      </g>
     </g>
     <g id="text_11">
      <!-- 15000 -->
      <g transform="translate(20.878125 159.173344)scale(0.1 -0.1)">
       <use xlink:href="#DejaVuSans-49"/>
       <use x="63.623047" xlink:href="#DejaVuSans-53"/>
       <use x="127.246094" xlink:href="#DejaVuSans-48"/>
       <use x="190.869141" xlink:href="#DejaVuSans-48"/>
       <use x="254.492188" xlink:href="#DejaVuSans-48"/>
      </g>
     </g>
    </g>
    <g id="ytick_5">
     <g id="line2d_11">
      <g>
       <use style="stroke:#000000;stroke-width:0.8;" x="59.690625" xlink:href="#md9b29bb4e8" y="88.846125"/>
      </g>
     </g>
     <g id="text_12">
      <!-- 20000 -->
      <g transform="translate(20.878125 92.645344)scale(0.1 -0.1)">
       <use xlink:href="#DejaVuSans-50"/>
       <use x="63.623047" xlink:href="#DejaVuSans-48"/>
       <use x="127.246094" xlink:href="#DejaVuSans-48"/>
       <use x="190.869141" xlink:href="#DejaVuSans-48"/>
       <use x="254.492188" xlink:href="#DejaVuSans-48"/>
      </g>
     </g>
    </g>
    <g id="ytick_6">
     <g id="line2d_12">
      <g>
       <use style="stroke:#000000;stroke-width:0.8;" x="59.690625" xlink:href="#md9b29bb4e8" y="22.318125"/>
      </g>
     </g>
     <g id="text_13">
      <!-- 25000 -->
      <g transform="translate(20.878125 26.117344)scale(0.1 -0.1)">
       <use xlink:href="#DejaVuSans-50"/>
       <use x="63.623047" xlink:href="#DejaVuSans-53"/>
       <use x="127.246094" xlink:href="#DejaVuSans-48"/>
       <use x="190.869141" xlink:href="#DejaVuSans-48"/>
       <use x="254.492188" xlink:href="#DejaVuSans-48"/>
      </g>
     </g>
    </g>
    <g id="text_14">
     <!-- Message Count -->
     <defs>
      <path d="M 9.8125 72.90625 
L 24.515625 72.90625 
L 43.109375 23.296875 
L 61.8125 72.90625 
L 76.515625 72.90625 
L 76.515625 0 
L 66.890625 0 
L 66.890625 64.015625 
L 48.09375 14.015625 
L 38.1875 14.015625 
L 19.390625 64.015625 
L 19.390625 0 
L 9.8125 0 
z
" id="DejaVuSans-77"/>
      <path d="M 45.40625 27.984375 
Q 45.40625 37.75 41.375 43.109375 
Q 37.359375 48.484375 30.078125 48.484375 
Q 22.859375 48.484375 18.828125 43.109375 
Q 14.796875 37.75 14.796875 27.984375 
Q 14.796875 18.265625 18.828125 12.890625 
Q 22.859375 7.515625 30.078125 7.515625 
Q 37.359375 7.515625 41.375 12.890625 
Q 45.40625 18.265625 45.40625 27.984375 
z
M 54.390625 6.78125 
Q 54.390625 -7.171875 48.1875 -13.984375 
Q 42 -20.796875 29.203125 -20.796875 
Q 24.46875 -20.796875 20.265625 -20.09375 
Q 16.0625 -19.390625 12.109375 -17.921875 
L 12.109375 -9.1875 
Q 16.0625 -11.328125 19.921875 -12.34375 
Q 23.78125 -13.375 27.78125 -13.375 
Q 36.625 -13.375 41.015625 -8.765625 
Q 45.40625 -4.15625 45.40625 5.171875 
L 45.40625 9.625 
Q 42.625 4.78125 38.28125 2.390625 
Q 33.9375 0 27.875 0 
Q 17.828125 0 11.671875 7.65625 
Q 5.515625 15.328125 5.515625 27.984375 
Q 5.515625 40.671875 11.671875 48.328125 
Q 17.828125 56 27.875 56 
Q 33.9375 56 38.28125 53.609375 
Q 42.625 51.21875 45.40625 46.390625 
L 45.40625 54.6875 
L 54.390625 54.6875 
z
" id="DejaVuSans-103"/>
      <path d="M 64.40625 67.28125 
L 64.40625 56.890625 
Q 59.421875 61.53125 53.78125 63.8125 
Q 48.140625 66.109375 41.796875 66.109375 
Q 29.296875 66.109375 22.65625 58.46875 
Q 16.015625 50.828125 16.015625 36.375 
Q 16.015625 21.96875 22.65625 14.328125 
Q 29.296875 6.6875 41.796875 6.6875 
Q 48.140625 6.6875 53.78125 8.984375 
Q 59.421875 11.28125 64.40625 15.921875 
L 64.40625 5.609375 
Q 59.234375 2.09375 53.4375 0.328125 
Q 47.65625 -1.421875 41.21875 -1.421875 
Q 24.65625 -1.421875 15.125 8.703125 
Q 5.609375 18.84375 5.609375 36.375 
Q 5.609375 53.953125 15.125 64.078125 
Q 24.65625 74.21875 41.21875 74.21875 
Q 47.75 74.21875 53.53125 72.484375 
Q 59.328125 70.75 64.40625 67.28125 
z
" id="DejaVuSans-67"/>
      <path d="M 30.609375 48.390625 
Q 23.390625 48.390625 19.1875 42.75 
Q 14.984375 37.109375 14.984375 27.296875 
Q 14.984375 17.484375 19.15625 11.84375 
Q 23.34375 6.203125 30.609375 6.203125 
Q 37.796875 6.203125 41.984375 11.859375 
Q 46.1875 17.53125 46.1875 27.296875 
Q 46.1875 37.015625 41.984375 42.703125 
Q 37.796875 48.390625 30.609375 48.390625 
z
M 30.609375 56 
Q 42.328125 56 49.015625 48.375 
Q 55.71875 40.765625 55.71875 27.296875 
Q 55.71875 13.875 49.015625 6.21875 
Q 42.328125 -1.421875 30.609375 -1.421875 
Q 18.84375 -1.421875 12.171875 6.21875 
Q 5.515625 13.875 5.515625 27.296875 
Q 5.515625 40.765625 12.171875 48.375 
Q 18.84375 56 30.609375 56 
z
" id="DejaVuSans-111"/>
      <path d="M 8.5 21.578125 
L 8.5 54.6875 
L 17.484375 54.6875 
L 17.484375 21.921875 
Q 17.484375 14.15625 20.5 10.265625 
Q 23.53125 6.390625 29.59375 6.390625 
Q 36.859375 6.390625 41.078125 11.03125 
Q 45.3125 15.671875 45.3125 23.6875 
L 45.3125 54.6875 
L 54.296875 54.6875 
L 54.296875 0 
L 45.3125 0 
L 45.3125 8.40625 
Q 42.046875 3.421875 37.71875 1 
Q 33.40625 -1.421875 27.6875 -1.421875 
Q 18.265625 -1.421875 13.375 4.4375 
Q 8.5 10.296875 8.5 21.578125 
z
M 31.109375 56 
z
" id="DejaVuSans-117"/>
      <path d="M 54.890625 33.015625 
L 54.890625 0 
L 45.90625 0 
L 45.90625 32.71875 
Q 45.90625 40.484375 42.875 44.328125 
Q 39.84375 48.1875 33.796875 48.1875 
Q 26.515625 48.1875 22.3125 43.546875 
Q 18.109375 38.921875 18.109375 30.90625 
L 18.109375 0 
L 9.078125 0 
L 9.078125 54.6875 
L 18.109375 54.6875 
L 18.109375 46.1875 
Q 21.34375 51.125 25.703125 53.5625 
Q 30.078125 56 35.796875 56 
Q 45.21875 56 50.046875 50.171875 
Q 54.890625 44.34375 54.890625 33.015625 
z
" id="DejaVuSans-110"/>
      <path d="M 18.3125 70.21875 
L 18.3125 54.6875 
L 36.8125 54.6875 
L 36.8125 47.703125 
L 18.3125 47.703125 
L 18.3125 18.015625 
Q 18.3125 11.328125 20.140625 9.421875 
Q 21.96875 7.515625 27.59375 7.515625 
L 36.8125 7.515625 
L 36.8125 0 
L 27.59375 0 
Q 17.1875 0 13.234375 3.875 
Q 9.28125 7.765625 9.28125 18.015625 
L 9.28125 47.703125 
L 2.6875 47.703125 
L 2.6875 54.6875 
L 9.28125 54.6875 
L 9.28125 70.21875 
z
" id="DejaVuSans-116"/>
     </defs>
     <g transform="translate(14.798438 226.990469)rotate(-90)scale(0.1 -0.1)">
      <use xlink:href="#DejaVuSans-77"/>
      <use x="86.279297" xlink:href="#DejaVuSans-101"/>
      <use x="147.802734" xlink:href="#DejaVuSans-115"/>
      <use x="199.902344" xlink:href="#DejaVuSans-115"/>
      <use x="252.001953" xlink:href="#DejaVuSans-97"/>
      <use x="313.28125" xlink:href="#DejaVuSans-103"/>
      <use x="376.757812" xlink:href="#DejaVuSans-101"/>
      <use x="438.28125" xlink:href="#DejaVuSans-32"/>
      <use x="470.068359" xlink:href="#DejaVuSans-67"/>
      <use x="539.892578" xlink:href="#DejaVuSans-111"/>
      <use x="601.074219" xlink:href="#DejaVuSans-117"/>
      <use x="664.453125" xlink:href="#DejaVuSans-110"/>
      <use x="727.832031" xlink:href="#DejaVuSans-116"/>
     </g>
    </g>
   </g>
   <g id="patch_203">
    <path d="M 59.690625 354.958125 
L 59.690625 22.318125 
" style="fill:none;stroke:#000000;stroke-linecap:square;stroke-linejoin:miter;stroke-width:0.8;"/>
   </g>
   <g id="patch_204">
    <path d="M 394.490625 354.958125 
L 394.490625 22.318125 
" style="fill:none;stroke:#000000;stroke-linecap:square;stroke-linejoin:miter;stroke-width:0.8;"/>
   </g>
   <g id="patch_205">
    <path d="M 59.690625 354.958125 
L 394.490625 354.958125 
" style="fill:none;stroke:#000000;stroke-linecap:square;stroke-linejoin:miter;stroke-width:0.8;"/>
   </g>
   <g id="patch_206">
    <path d="M 59.690625 22.318125 
L 394.490625 22.318125 
" style="fill:none;stroke:#000000;stroke-linecap:square;stroke-linejoin:miter;stroke-width:0.8;"/>
   </g>
   <g id="text_15">
    <!-- Day 7 - Message delay -->
    <defs>
     <path d="M 8.203125 72.90625 
L 55.078125 72.90625 
L 55.078125 68.703125 
L 28.609375 0 
L 18.3125 0 
L 43.21875 64.59375 
L 8.203125 64.59375 
z
" id="DejaVuSans-55"/>
     <path d="M 4.890625 31.390625 
L 31.203125 31.390625 
L 31.203125 23.390625 
L 4.890625 23.390625 
z
" id="DejaVuSans-45"/>
     <path d="M 45.40625 46.390625 
L 45.40625 75.984375 
L 54.390625 75.984375 
L 54.390625 0 
L 45.40625 0 
L 45.40625 8.203125 
Q 42.578125 3.328125 38.25 0.953125 
Q 33.9375 -1.421875 27.875 -1.421875 
Q 17.96875 -1.421875 11.734375 6.484375 
Q 5.515625 14.40625 5.515625 27.296875 
Q 5.515625 40.1875 11.734375 48.09375 
Q 17.96875 56 27.875 56 
Q 33.9375 56 38.25 53.625 
Q 42.578125 51.265625 45.40625 46.390625 
z
M 14.796875 27.296875 
Q 14.796875 17.390625 18.875 11.75 
Q 22.953125 6.109375 30.078125 6.109375 
Q 37.203125 6.109375 41.296875 11.75 
Q 45.40625 17.390625 45.40625 27.296875 
Q 45.40625 37.203125 41.296875 42.84375 
Q 37.203125 48.484375 30.078125 48.484375 
Q 22.953125 48.484375 18.875 42.84375 
Q 14.796875 37.203125 14.796875 27.296875 
z
" id="DejaVuSans-100"/>
    </defs>
    <g transform="translate(158.939063 16.318125)scale(0.12 -0.12)">
     <use xlink:href="#DejaVuSans-68"/>
     <use x="77.001953" xlink:href="#DejaVuSans-97"/>
     <use x="138.28125" xlink:href="#DejaVuSans-121"/>
     <use x="197.460938" xlink:href="#DejaVuSans-32"/>
     <use x="229.248047" xlink:href="#DejaVuSans-55"/>
     <use x="292.871094" xlink:href="#DejaVuSans-32"/>
     <use x="324.658203" xlink:href="#DejaVuSans-45"/>
     <use x="360.742188" xlink:href="#DejaVuSans-32"/>
     <use x="392.529297" xlink:href="#DejaVuSans-77"/>
     <use x="478.808594" xlink:href="#DejaVuSans-101"/>
     <use x="540.332031" xlink:href="#DejaVuSans-115"/>
     <use x="592.431641" xlink:href="#DejaVuSans-115"/>
     <use x="644.53125" xlink:href="#DejaVuSans-97"/>
     <use x="705.810547" xlink:href="#DejaVuSans-103"/>
     <use x="769.287109" xlink:href="#DejaVuSans-101"/>
     <use x="830.810547" xlink:href="#DejaVuSans-32"/>
     <use x="862.597656" xlink:href="#DejaVuSans-100"/>
     <use x="926.074219" xlink:href="#DejaVuSans-101"/>
     <use x="987.597656" xlink:href="#DejaVuSans-108"/>
     <use x="1015.380859" xlink:href="#DejaVuSans-97"/>
     <use x="1076.660156" xlink:href="#DejaVuSans-121"/>
    </g>
   </g>
  </g>
 </g>
 <defs>
  <clipPath id="p817c95bc7c">
   <rect height="332.64" width="334.8" x="59.690625" y="22.318125"/>
  </clipPath>
 </defs>
</svg>
